<svg xmlns="http://www.w3.org/2000/svg" viewBox="0 0 120 48" role="img" aria-label="Apple Pay">
  <rect x="4" y="10" width="112" height="28" rx="6" fill="#0a0f1e"/>
  <path d="M32.4 22.3c-.7.8-1.9 1.5-3 1.4-.1-1.2.4-2.4 1.1-3.2.7-.9 2-1.5 3-1.6.1 1.2-.4 2.5-1.1 3.4zm1.1.6c-1.7-.1-3.1.9-3.9.9s-2-.9-3.4-.9c-1.8 0-3.4 1-4.3 2.6-1.8 3.2-.5 7.9 1.3 10.5.9 1.3 2 2.7 3.3 2.6 1.3 0 1.8-.8 3.4-.8s2 .8 3.4.8c1.4 0 2.3-1.3 3.2-2.6 1-1.5 1.4-2.9 1.4-3-.1 0-2.7-1-2.7-4 0-2.5 2-3.6 2.1-3.7-1.2-1.6-2.9-1.8-3.5-1.9z" fill="#ffffff"/>
  <text x="50" y="30" font-family="Inter, sans-serif" font-size="14" font-weight="500" fill="#ffffff">Pay</text>
</svg>
