<svg xmlns="http://www.w3.org/2000/svg" viewBox="0 0 800 640" role="img" aria-label="Panel de conciliación TIN (placeholder)">
  <defs>
    <linearGradient id="bg" x1="0" y1="0" x2="1" y2="1">
      <stop offset="0%" stop-color="#f2f4f6"/>
      <stop offset="100%" stop-color="#e6e8ea"/>
    </linearGradient>
  </defs>
  <rect width="800" height="640" rx="24" fill="url(#bg)"/>
  <g fill="#ffffff" stroke="none">
    <rect x="40" y="48" width="720" height="96" rx="16"/>
    <rect x="40" y="168" width="344" height="176" rx="16"/>
    <rect x="416" y="168" width="344" height="176" rx="16"/>
    <rect x="40" y="368" width="720" height="224" rx="16"/>
  </g>
  <g fill="#45464d" font-family="Inter, system-ui, sans-serif">
    <text x="72" y="102" font-size="18" font-weight="600" fill="#191c1e">Operaciones · hoy</text>
    <text x="72" y="126" font-size="13" letter-spacing="0.5" fill="#45464d">APROBACIÓN · LATENCIA · VOLUMEN</text>
    <text x="72" y="220" font-size="13" letter-spacing="0.5">APROBACIÓN</text>
    <text x="72" y="268" font-size="40" font-weight="700" fill="#191c1e">98.4%</text>
    <text x="72" y="300" font-size="13" fill="#0058be" font-weight="600">˛ +3.1 pts</text>
    <text x="448" y="220" font-size="13" letter-spacing="0.5">LATENCIA p95</text>
    <text x="448" y="268" font-size="40" font-weight="700" fill="#191c1e">120 ms</text>
    <text x="448" y="300" font-size="13" fill="#0058be" font-weight="600">Ľ -18 ms</text>
    <text x="72" y="412" font-size="13" letter-spacing="0.5">ÚLTIMAS TRANSACCIONES</text>
  </g>
  <g>
    <rect x="72" y="432" width="656" height="44" rx="10" fill="#f7f9fb"/>
    <rect x="72" y="488" width="656" height="44" rx="10" fill="#f7f9fb"/>
    <rect x="72" y="544" width="656" height="44" rx="10" fill="#f7f9fb"/>
    <circle cx="96" cy="454" r="6" fill="#0058be"/>
    <circle cx="96" cy="510" r="6" fill="#0058be"/>
    <circle cx="96" cy="566" r="6" fill="#c6c6cd"/>
  </g>
  <g fill="#191c1e" font-family="Inter, system-ui, sans-serif" font-size="13" font-weight="500">
    <text x="116" y="458">Payin · PSE · Colombia</text>
    <text x="116" y="514">Payout · SPEI · México</text>
    <text x="116" y="570">Payin · Pix · Brasil</text>
  </g>
  <g fill="#45464d" font-family="Inter, system-ui, sans-serif" font-size="12" text-anchor="end">
    <text x="712" y="458">COP 1.250.000 · settled</text>
    <text x="712" y="514">MXN 32.400 · settled</text>
    <text x="712" y="570">BRL 980,00 · pending</text>
  </g>
</svg>
